<svg width="500" height="150" viewBox="0 0 500 150" fill="none" xmlns="http://www.w3.org/2000/svg">
<path d="M73.8301 108.02H76.9701L69.21 129.82H65.81L58.05 108.02H61.3601L66.85 124.74L67.5501 126.98H67.64L68.31 124.74L73.8301 108.02Z" fill="#62666A"/>
<path d="M85.1101 129.83V108.03H88.1601V129.83H85.1101Z" fill="#62666A"/>
<path d="M115.37 118.84C115.37 122.74 114.61 125.54 113.1 127.26C111.59 128.98 109.23 129.83 106.04 129.83H98.51V108.03H105.98C109.29 108.03 111.69 108.88 113.16 110.57C114.63 112.27 115.37 115.02 115.37 118.84ZM112.26 118.84C112.26 115.78 111.79 113.67 110.84 112.53C109.89 111.39 108.26 110.82 105.96 110.82H101.48V127.07H105.99C108.24 127.07 109.85 126.49 110.82 125.34C111.79 124.19 112.27 122.02 112.27 118.84H112.26Z" fill="#62666A"/>
<path d="M137.7 129.83L135.96 124.63H126.37L124.63 129.83H121.43L129.45 108.03H133L141.05 129.83H137.71H137.7ZM131.19 110.2L130.46 112.47L127.23 122.03H135.11L131.94 112.47L131.27 110.2H131.18H131.19Z" fill="#62666A"/>
<path d="M164.79 127.12H175.81L175.72 129.82H161.82V108.02H175.22L175.31 110.75H164.79V117.23H173.8V119.73H164.79V127.11V127.12Z" fill="#62666A"/>
<path d="M200.7 129.83H198.58L188.29 114.83L187.01 112.85L186.95 112.88L186.98 115.23V129.82H184.31V108.02H187.01L198.06 124.5L198.12 124.47L198.06 122.14V108.01H200.71V129.81L200.7 129.83Z" fill="#62666A"/>
<path d="M223.78 108.02H227.15L233.4 123.43L234.24 125.61H234.33L235.14 123.43L241.39 108.02H244.73V129.82H242.03V115.4L242.09 113.05L242 113.02L241.16 115.23L235.26 129.82H233.17L227.3 115.34L226.46 113.13L226.4 113.16L226.43 115.51V129.81H223.78V108.01V108.02Z" fill="#62666A"/>
<path d="M271.72 118.93C271.72 122.96 271.03 125.85 269.64 127.61C268.25 129.36 265.94 130.24 262.71 130.24C259.48 130.24 257.18 129.35 255.78 127.58C254.37 125.81 253.67 122.92 253.67 118.93C253.67 114.94 254.37 112.06 255.76 110.31C257.16 108.56 259.47 107.68 262.71 107.68C265.95 107.68 268.26 108.55 269.64 110.3C271.03 112.04 271.72 114.92 271.72 118.93ZM268.61 118.93C268.61 116.7 268.41 114.97 268.01 113.74C267.61 112.51 267 111.65 266.18 111.17C265.36 110.69 264.2 110.44 262.71 110.44C260.52 110.44 258.99 111.04 258.12 112.23C257.25 113.42 256.81 115.66 256.81 118.93C256.81 122.2 257.25 124.42 258.12 125.63C258.99 126.84 260.52 127.45 262.71 127.45C264.9 127.45 266.43 126.84 267.3 125.63C268.17 124.42 268.61 122.18 268.61 118.93Z" fill="#62666A"/>
<path d="M293.64 108.02H296.78L289.02 129.82H285.62L277.86 108.02H281.17L286.66 124.74L287.36 126.98H287.45L288.12 124.74L293.64 108.02Z" fill="#62666A"/>
<path d="M304.92 129.83V108.03H307.97V129.83H304.92Z" fill="#62666A"/>
<path d="M318.33 108.02H321.7L327.95 123.43L328.79 125.61H328.88L329.69 123.43L335.94 108.02H339.28V129.82H336.58V115.4L336.64 113.05L336.55 113.02L335.71 115.23L329.81 129.82H327.72L321.85 115.34L321.01 113.13L320.95 113.16L320.98 115.51V129.81H318.33V108.01V108.02Z" fill="#62666A"/>
<path d="M349.64 129.83V108.03H352.69V129.83H349.64Z" fill="#62666A"/>
<path d="M366.01 127.12H377.03L376.94 129.82H363.04V108.02H376.44L376.53 110.75H366.01V117.23H375.02V119.73H366.01V127.11V127.12Z" fill="#62666A"/>
<path d="M401.91 129.83H399.79L389.5 114.83L388.22 112.85L388.16 112.88L388.19 115.23V129.82H385.52V108.02H388.22L399.27 124.5L399.33 124.47L399.27 122.14V108.01H401.92V129.81L401.91 129.83Z" fill="#62666A"/>
<path d="M425.55 110.82H419.07V129.83H416.05V110.82H409.57L409.66 108.03H425.5L425.56 110.82H425.55Z" fill="#62666A"/>
<path d="M449.65 118.93C449.65 122.96 448.96 125.85 447.57 127.61C446.18 129.36 443.87 130.24 440.64 130.24C437.41 130.24 435.11 129.35 433.71 127.58C432.3 125.81 431.6 122.92 431.6 118.93C431.6 114.94 432.3 112.06 433.69 110.31C435.09 108.56 437.4 107.68 440.64 107.68C443.88 107.68 446.19 108.55 447.57 110.3C448.96 112.04 449.65 114.92 449.65 118.93ZM446.54 118.93C446.54 116.7 446.34 114.97 445.94 113.74C445.54 112.51 444.93 111.65 444.11 111.17C443.29 110.69 442.13 110.44 440.64 110.44C438.45 110.44 436.92 111.04 436.05 112.23C435.18 113.42 434.74 115.66 434.74 118.93C434.74 122.2 435.18 124.42 436.05 125.63C436.92 126.84 438.45 127.45 440.64 127.45C442.83 127.45 444.36 126.84 445.23 125.63C446.1 124.42 446.54 122.18 446.54 118.93Z" fill="#62666A"/>
<path d="M30.29 33.24V78.46H16.25V33.24H0L0.27 21.14H46.19L46.46 33.24H30.29Z" fill="#62666A"/>
<path d="M100.55 32.36H91.9001V47.55H100.38C106.39 47.55 108.59 45.79 108.59 39.78C108.59 34.22 106.56 32.36 100.55 32.36ZM113.18 54.97L127.13 78.46H110.79L100.46 57.71H91.8901V78.46H78.1101V21.14H100.54C115.56 21.14 123.06 26.97 123.06 39.16C123.06 47.2 119.53 52.94 113.17 54.97" fill="#62666A"/>
<path d="M178.18 38.98L172.7 56.38H187.63L182.33 39.07L180.48 32.09H180.21L178.18 38.98ZM191.07 67.51H169.25L165.81 78.46H151.06L172.25 21.14H188.5L210.05 78.46H194.42L191.06 67.51H191.07Z" fill="#62666A"/>
<path d="M271.97 48.43L289.63 78.46H273.82L265.61 63.36L262.43 57H262.16L258.9 63.45L250.95 78.46H234.7L252.1 48.78L235.14 21.14H251.83L258.99 34.13L262.25 40.4H262.52L265.79 34.13L273.03 21.14H289.01L271.97 48.43Z" fill="#62666A"/>
<path d="M334.58 21.14H320.36V78.46H334.58V21.14Z" fill="#62666A"/>
<path d="M488.96 78.46L467.24 47.55L463.26 41.63L463.08 41.72L463.17 48.87V78.46H450.9V21.14H462.47L483.58 50.64L487.64 56.47L487.81 56.38L487.64 49.32V21.14H500V78.46H488.96Z" fill="#62666A"/>
<path d="M393.03 31.59C384.28 31.59 381.22 35.12 381.22 49.7C381.22 64.28 384.37 67.96 393.11 67.96C401.85 67.96 404.85 64.2 404.85 49.7C404.85 35.2 401.86 31.59 393.04 31.59M393.03 79.53C375.31 79.53 367.64 70.17 367.64 49.69C367.64 29.21 375.08 20 393.03 20C410.98 20 418.35 29.21 418.35 49.69C418.35 70.17 411.06 79.53 393.03 79.53Z" fill="#62666A"/>
</svg>
